<svg data-noselect="" viewBox="1.1368683772161603e-13 5.684341886080802e-14 799.9999999999998 599.9999999999999" width="1600" height="1200" preserveAspectRatio="none" version="1.1" xmlns="http://www.w3.org/2000/svg" xmlns:xlink="http://www.w3.org/1999/xlink" data-v-a7a4d779=""><defs data-v-a7a4d779=""></defs><g id="background" data-noselect="" data-v-a7a4d779=""><rect fill="#ffffff" x="1.1368683772161603e-13" y="5.684341886080802e-14" width="799.9999999999998" height="599.9999999999999" data-noselect=""></rect><!----></g><g id="shape_V2Q1v97SSd" transform="translate(18.896849694107942,-263.30132764704405) rotate(0,381.1031503058921,579.7341964308382) scale(1,1)" filter="" data-v-a7a4d779="" style="opacity: 1;"><g data-v-a7a4d779=""><svg xmlns="http://www.w3.org/2000/svg" version="1.1" xmlns:xlink="http://www.w3.org/1999/xlink" width="1084.7771329931718" height="1159.4683928616762" viewBox="0 0 463.88 495.81999999999994" data-parent="shape_V2Q1v97SSd"><g data-width="187.66737000000003" transform="translate(69.13631499999998, 0)"><path d="M22.69-46.00L39.17-46.00L39.17-37.80L26.42-37.80Q21.45-37.80 19.17-37.11Q16.90-36.42 15.38-34.42L15.38-34.42Q14.35-33.04 13.97-31.66Q13.59-30.28 13.31-26.97L13.31-26.97L39.17-26.97L39.17-18.76L13.31-18.76Q13.86-12.83 16.83-10.52Q19.79-8.21 26.90-8.21L26.90-8.21L39.17-8.21L39.17 0L26.42 0Q21.24 0 17.31-0.62L17.31-0.62Q11.10-1.66 7.45-6.07L7.45-6.07Q2.21-12.41 2.21-23.24L2.21-23.24Q2.21-35.24 9.59-41.93L9.59-41.93Q12.14-44.21 15.00-45.11Q17.86-46.00 22.69-46.00L22.69-46.00Z" transform="translate(0 271.90999999999997) " fill="#234ac8" stroke="#234ac8" stroke-width="0.115" data-glyph-w="42.20964" data-glyph-h="68.97" data-glyph-ascender="59.24523000000001" data-glyph-descender="-9.724770000000001"></path><path d="M14.90 0L14.90-37.80L0.28-37.80L0.28-46.00L39.93-46.00L39.93-37.80L24.69-37.80L24.69 0L14.90 0Z" transform="translate(42.20964 271.90999999999997) " fill="#234ac8" stroke="#234ac8" stroke-width="0.115" data-glyph-w="40.27848" data-glyph-h="68.97" data-glyph-ascender="59.24523000000001" data-glyph-descender="-9.724770000000001"></path><path d="M13.86-27.17L41.31-27.17L41.31-18.97L13.86-18.97L13.86 0L4.14 0L4.14-24.00Q4.21-34.35 6.07-37.59L6.07-37.59Q8.41-42.14 12.86-44.07Q17.31-46.00 25.38-46.00L25.38-46.00L41.31-46.00L41.31-37.80L26.62-37.80Q19.79-37.66 17.86-36.69L17.86-36.69Q14.00-35.11 13.86-29.66L13.86-29.66L13.86-27.17Z" transform="translate(82.48812000000001 271.90999999999997) " fill="#234ac8" stroke="#234ac8" stroke-width="0.115" data-glyph-w="43.864920000000005" data-glyph-h="68.97" data-glyph-ascender="59.24523000000001" data-glyph-descender="-9.724770000000001"></path><path d="M4.48-46.00L18.76-46.00L30.21-10.07L42.28-46.00L56.56-46.00L56.56 0L47.24 0L47.24-34.48L35.24 0L25.17 0L13.79-34.48L13.79 0L4.48 0L4.48-46.00Z" transform="translate(126.35304000000002 271.90999999999997) " fill="#234ac8" stroke="#234ac8" stroke-width="0.115" data-glyph-w="61.314330000000005" data-glyph-h="68.97" data-glyph-ascender="59.24523000000001" data-glyph-descender="-9.724770000000001"></path></g></svg></g></g><g id="shape_pKnmJobsV4" transform="translate(238.64441877297514,398.27989744370836) rotate(0,187.07892265123252,40.86005127814579) scale(1,1)" filter="" data-v-a7a4d779="" style="opacity: 1;"><g data-v-a7a4d779=""><svg version="1.1" id="图层_1" xmlns="http://www.w3.org/2000/svg" xmlns:xlink="http://www.w3.org/1999/xlink" x="0px" y="0px" viewBox="0 0 230.3 50.3" style="enable-background:new 0 0 230.3 50.3;" xml:space="preserve" width="374.15784530246503" height="81.72010255629158" class="style-removed" preserveAspectRatio="none" data-parent="shape_pKnmJobsV4">

<g>
	<g>
		<path d="M230.3,31.4c0,0-14.1-31.4-52.2-31.4c-30.3,0-51.7,24.9-78.3,33c-24.7,7.5-56.2,7.8-81.4-10.3
			c0,0,25,26.2,70.4,22.6c45.4-3.7,62.2-33.1,104.9-32c0,0-23.6,5.2-39.1,14.1s-32,18-41.2,18.2c0,0,15.8,9.6,35.1,1.5
			S192,20.7,209,20.4C222.4,20.2,230.3,31.4,230.3,31.4z" fill="#00AEEF" stroke-width="0"></path>
	</g>
	<g>
		<path d="M0,0h31.3c0,0,29.4,36.4,57.5,35.7c0,0-28.1,7-53.8-3.5C16.2,24.6,7.6,13.2,0,0z" fill="#234AC8" stroke-width="0"></path>
	</g>
</g>
</svg></g></g><g id="shape_Di7yyS6COn" transform="translate(224.6135100144695,120) rotate(0,187.07892265123252,59.324870291285144) scale(1,1)" filter="" data-v-a7a4d779="" style="opacity: 1;"><g data-v-a7a4d779=""><svg version="1.1" id="图层_1" xmlns="http://www.w3.org/2000/svg" xmlns:xlink="http://www.w3.org/1999/xlink" x="0px" y="0px" viewBox="0 0 254.8 80.8" style="enable-background:new 0 0 254.8 80.8;" xml:space="preserve" width="374.15784530246503" height="118.64974058257029" class="style-removed" preserveAspectRatio="none" data-parent="shape_Di7yyS6COn">

<g>
	<g>
		<path d="M74,44.8L74,44.8c-4.4,0-8.5,2.3-10.7,6.2l0,0c-2.2,3.8-2.2,8.5,0,12.3l0,0c2.2,3.8,6.3,6.2,10.7,6.2h0
			c4.4,0,8.5-2.3,10.7-6.2l0,0c2.2-3.8,2.2-8.5,0-12.3l0,0C82.4,47.2,78.4,44.8,74,44.8z" fill="#00AEEF" stroke-width="0"></path>
	</g>
	<g>
		<path d="M194.7,55.6L194.7,55.6c-3.3,0-6.4,1.8-8.1,4.7l0,0c-1.7,2.9-1.7,6.4,0,9.3l0,0c1.7,2.9,4.7,4.7,8.1,4.7h0
			c3.3,0,6.4-1.8,8.1-4.7v0c1.7-2.9,1.7-6.4,0-9.3v0C201.1,57.4,198,55.6,194.7,55.6z" fill="#00AEEF" stroke-width="0"></path>
	</g>
	<g>
		<path d="M169.4,42.5L169.4,42.5c-2.1,0-4,1.1-5,2.9v0c-1,1.8-1,4,0,5.8v0c1,1.8,2.9,2.9,5,2.9h0c2.1,0,4-1.1,5-2.9v0
			c1-1.8,1-4,0-5.8v0C173.3,43.6,171.4,42.5,169.4,42.5z" fill="#00AEEF" stroke-width="0"></path>
	</g>
	<g>
		<path d="M110.8,33.2L110.8,33.2c-3.3,0-6.4,1.8-8.1,4.7v0c-1.7,2.9-1.7,6.4,0,9.3v0c1.7,2.9,4.7,4.7,8.1,4.7h0
			c3.3,0,6.4-1.8,8.1-4.7l0,0c1.7-2.9,1.7-6.4,0-9.3l0,0C117.2,35,114.2,33.2,110.8,33.2z" fill="#00AEEF" stroke-width="0"></path>
	</g>
	<g>
		<path d="M226.5,55.1L226.5,55.1c-2,0-3.9,1.1-4.9,2.8v0c-1,1.8-1,3.9,0,5.7v0c1,1.8,2.9,2.8,4.9,2.8l0,0
			c2,0,3.9-1.1,4.9-2.8v0c1-1.8,1-3.9,0-5.7v0C230.4,56.2,228.5,55.1,226.5,55.1z" fill="#00AEEF" stroke-width="0"></path>
	</g>
	<g>
		<path d="M249.6,69L249.6,69c-1.8,0-3.6,1-4.5,2.6v0c-0.9,1.6-0.9,3.6,0,5.2l0,0c0.9,1.6,2.6,2.6,4.5,2.6l0,0
			c1.8,0,3.6-1,4.5-2.6h0c0.9-1.6,0.9-3.6,0-5.2l0,0C253.2,70,251.4,69,249.6,69z" fill="#00AEEF" stroke-width="0"></path>
	</g>
	<g>
		<path d="M141.9,44.9L141.9,44.9c-4.4,0-8.4,2.3-10.6,6.1v0c-2.2,3.8-2.2,8.5,0,12.3v0c2.2,3.8,6.2,6.1,10.6,6.1h0
			c4.4,0,8.4-2.3,10.6-6.1v0c2.2-3.8,2.2-8.5,0-12.3v0C150.3,47.2,146.3,44.9,141.9,44.9z" fill="#00AEEF" stroke-width="0"></path>
	</g>
	<g>
		<path d="M28.9,80.8c13.6-39.6,52.2-68.2,97.6-68.2c35.5,0,66.9,17.5,85.4,44.1C192,22.8,154.4,0,111.2,0
			C58.5,0,14.1,34.1,0,80.8H28.9z" fill="#234AC8" stroke-width="0"></path>
	</g>
</g>
</svg></g></g></svg>